PathFileType	4	(X/Y/Z)	RBDS019\RBDS019runT25.trc
DataRate	CameraRate	NumFrames	NumMarkers	Units	OrigDataRate	OrigDataStartFrame	OrigNumFrames
150.000000	150.000000	4	33	mm	150.000000	1687	4500
Frame#	Time	L.ASIS			L.Heel.Bottom			L.Heel.Lateral			L.Heel.Top			L.Iliac.Crest			L.MT1			L.MT5			L.PSIS			L.Shank.Bottom.Lateral			L.Shank.Bottom.Medial			L.Shank.Top.Lateral			L.Shank.Top.Medial			L.Thigh.Bottom.Lateral			L.Thigh.Bottom.Medial			L.Thigh.Top.Lateral			L.Thigh.Top.Medial			R.ASIS			R.ASY			R.Heel.Bottom			R.Heel.Lateral			R.Heel.Top			R.Iliac.Crest			R.MT1			R.MT5			R.PSIS			R.Shank.Bottom.Lateral			R.Shank.Bottom.Medial			R.Shank.Top.Lateral			R.Shank.Top.Medial			R.Thigh.Bottom.Lateral			R.Thigh.Bottom.Medial			R.Thigh.Top.Lateral			R.Thigh.Top.Medial			
		X1	Y1	Z1	X2	Y2	Z2	X3	Y3	Z3	X4	Y4	Z4	X5	Y5	Z5	X6	Y6	Z6	X7	Y7	Z7	X8	Y8	Z8	X9	Y9	Z9	X10	Y10	Z10	X11	Y11	Z11	X12	Y12	Z12	X13	Y13	Z13	X14	Y14	Z14	X15	Y15	Z15	X16	Y16	Z16	X17	Y17	Z17	X18	Y18	Z18	X19	Y19	Z19	X20	Y20	Z20	X21	Y21	Z21	X22	Y22	Z22	X23	Y23	Z23	X24	Y24	Z24	X25	Y25	Z25	X26	Y26	Z26	X27	Y27	Z27	X28	Y28	Z28	X29	Y29	Z29	X30	Y30	Z30	X31	Y31	Z31	X32	Y32	Z32	X33	Y33	Z33	

1688	11.24666666666667	2327.8970443659	948.4076939845598	969.1090010306957	1728.80037725779	422.1711180130098	1079.587008004829	1732.9386397196	405.5526576085727	1026.432651614352	1773.852680180115	417.9097154564023	1062.362157967104	2288.250071666937	1018.641692795718	933.7583153346087	1753.915897295919	218.7121232161927	1054.053900663613	1713.71382528226	272.4748472058442	970.1927734403868	2157.432018545328	992.9141464421003	1014.422814967898	1848.148571057902	397.5854243373761	981.9283125241609	1842.814368123682	424.4262916290256	1024.99479800904	1916.740699347713	437.0046057841056	963.4467116929992	1915.299762250628	464.7084991063064	1008.496208321294	2177.668269935163	582.7090545839391	914.9706573478984	2122.24263624555	596.5189806737847	960.8339567329232	2192.238937828521	690.2052162155263	901.9421807302115	2138.918975930149	703.6376724233234	945.8963992321204	2294.237354064477	960.7086659934758	1188.225174961933	2465.094345768978	99.91513766641614	1108.808772756194	2303.418701978287	20.76944479108279	1108.343846728743	2329.406650249582	38.45736347890737	1148.340779600979	2307.087918402396	65.72506793404278	1108.914201525815	2240.088448234836	1028.072124930795	1210.015361566715	2492.680979321613	71.29880762766616	1065.486916250227	2472.924191202222	50.20724051905811	1168.880659210015	2146.395823639638	994.5450559496871	1115.498433639621	2359.459943885453	153.3220219272593	1166.878495182334	2315.169346819739	153.9743070429891	1133.164207191576	2343.197444515852	230.0590131225964	1187.143196521543	2301.445241067628	230.8914477302812	1152.259970832699	2315.577314450049	574.7211979758063	1213.593699720322	2256.300955694518	561.3086622819297	1175.32675887455	2278.890477154619	676.9170789690789	1235.345958584265	2220.312201522545	662.1775536441672	1202.304386874705	
1689	11.25333333333333	2327.610561384368	942.5862546207311	969.9656579390564	1737.409596407115	431.2952354060414	1081.557808000011	1741.052520779543	415.2519197704896	1028.163169118297	1782.309419053659	425.5389350601791	1064.369884573991	2288.571184415317	1011.793448244543	933.4414294896745	1755.019791239054	227.1323255374468	1053.42763205853	1717.184037425747	283.5264607300776	970.1128266934265	2156.220588798913	985.2546646915636	1013.329266444124	1855.675556630148	402.2775596702099	982.9662462954294	1851.498809980313	429.2712478204935	1026.084046566013	1925.804892639817	438.8377386555513	964.3783894370461	1925.547101926071	466.4078034316928	1009.48920321742	2183.964275789614	574.3274781757259	915.0993885444001	2128.616295915525	586.5535093183757	961.5503748503684	2195.755514263125	682.1547351231402	902.1709667853976	2142.58527460847	694.0789862926092	946.6861526014744	2292.163400950765	955.5501369975345	1189.904338445247	2453.617855974286	93.83130876886509	1108.822484685826	2288.6986061339	21.50111867321483	1108.436310202811	2315.353181486973	38.42062151778224	1148.339055656516	2294.289445224269	66.33012867762048	1108.605445063113	2238.214476279206	1022.236277702411	1210.363168491955	2480.390118736431	64.19568752583109	1065.883652872236	2459.247410860243	44.94871327215846	1169.773099435026	2144.230392607542	987.3231414089937	1114.437815786253	2350.17959621945	149.9776960731144	1166.843672888768	2305.859361516083	152.2077306681898	1133.26216876455	2336.228045613177	226.9306320125698	1187.506787505223	2294.523958683532	229.2762509483835	1152.74559050347	2315.172337628788	570.7398996814259	1214.998300460602	2256.394906887278	556.6511232210579	1176.382135005529	2277.280100061053	672.5204677412146	1236.378116234518	2219.125275581685	657.1922969477802	1202.976344269259	
1690	11.26	2327.05897807673	936.3822168858788	970.6944756102166	1746.812009413641	439.6786693608849	1083.007918634221	1750.189437796052	424.1216038475576	1029.431872234161	1791.58129692343	432.4850647484726	1066.029650430309	2288.915068349536	1004.400200987872	932.9532723198585	1757.514305191925	234.9966257399984	1052.738488141628	1722.25567301105	293.6669920671085	969.7620257579721	2154.725126128649	977.2066222362292	1011.891880907273	1864.17170042662	406.4576530218467	983.8329397708022	1861.070563976462	433.5619138321609	1026.992694413934	1935.673999477261	440.1841960500442	965.1665971328391	1936.537639977005	467.574026228327	1010.344505175362	2190.489787376415	565.9205306105318	915.2425471051604	2135.144988042642	576.5445950573381	962.152982662825	2199.399908758545	674.0070842750621	902.3217773030397	2146.325511939076	684.4044214637771	947.2953312893331	2289.866875253831	950.4009928409594	1191.579888883562	2440.967067484569	88.39647415512295	1108.656477405889	2272.996857975628	22.58740316505457	1108.346215832411	2300.262373909745	38.8085631436865	1148.163117125277	2280.354888256833	67.29089855507739	1108.135348390008	2236.041397681685	1015.941348920092	1210.749365176641	2466.942144059321	58.01392542894366	1066.085651536354	2444.476745683347	40.45412180684787	1170.552272800236	2141.786497373525	979.9952583300854	1112.994026641077	2340.04355119129	147.3299734937248	1166.71750497835	2295.812322204196	151.3712820480334	1133.213632048946	2328.768831064311	224.4718998872681	1187.843115255918	2287.200395246846	228.5443403785483	1153.140441121619	2315.164966933492	566.9361066355901	1216.791695448214	2257.067141672463	552.0380581705236	1177.649528091963	2275.749563311167	668.1827092075096	1237.679859264755	2218.166833016236	652.1343378404789	1203.771680824331	
1691	11.26666666666667	2326.227396643743	929.9158730267366	971.2614176385862	1756.847082724996	447.2858236353839	1083.85964253968	1760.199636643389	432.0736306157552	1030.182280756588	1801.516308244132	438.7418988279881	1067.277208292047	2289.12735304664	996.5874020156626	932.2634333819049	1761.417039209919	242.231771779613	1052.055614857911	1728.879351291823	302.7214640431138	969.170484971639	2152.967565098049	968.9386338506425	1010.135449418729	1873.561999623537	410.1193419839273	984.5242623891855	1871.439840804538	437.3070140420843	1027.707181223406	1946.267327057419	441.0728753484843	965.8127492339701	1948.174595364089	468.2576700942035	1011.057687310883	2197.275825986942	557.6575811535556	915.4170732073942	2141.834217974028	566.6738607384086	962.6141358615995	2203.217050943435	665.9265142079038	902.4148559031953	2150.159866057195	674.7900639141058	947.705647325893	2287.37640034563	945.4057722443979	1193.209603767511	2427.336975635999	83.81562115268594	1108.378403387046	2256.678054136769	23.89501479478753	1108.143618109942	2284.470001291162	39.52900663484824	1147.882278621406	2265.562194096781	68.47916725861342	1107.586945565048	2233.551824911304	1009.28597494765	1211.151201558193	2452.562889185669	53.01019626607834	1066.141071877173	2428.912225795376	36.87921886538633	1171.218801424081	2139.124166656587	972.716348989921	1111.167901483356	2329.186630796222	145.4259729487577	1166.580537316614	2285.177863393557	151.4446697406044	1133.092321161732	2320.882292220235	222.7128933168811	1188.20617533419	2279.543355798151	228.6564047327288	1153.494178486016	2315.342048402608	563.3381359520688	1218.950522364795	2258.105508714397	547.5689483848644	1179.073182172687	2274.190186369281	663.9762879637117	1239.216597482605	2217.326924549617	647.1330438572064	1204.63706782015	
